<?xml version="1.0" encoding="UTF-8" standalone="no"?>
<svg width="18px" height="17px" viewBox="0 0 18 17" version="1.1" xmlns="http://www.w3.org/2000/svg" xmlns:xlink="http://www.w3.org/1999/xlink" xmlns:sketch="http://www.bohemiancoding.com/sketch/ns">
    <!-- Generator: sketchtool 3.5.1 (25234) - http://www.bohemiancoding.com/sketch -->
    <title>edit icon</title>
    <desc>Created with sketchtool.</desc>
    <defs></defs>
    <g id="Page-1" stroke="none" stroke-width="1" fill="none" fill-rule="evenodd" sketch:type="MSPage">
        <g id="performance" sketch:type="MSArtboardGroup" transform="translate(-107.000000, -615.000000)" fill="#A5A5A5">
            <path d="M110.940141,627.481072 L110.455802,629.17624 C110.28118,629.785658 110.587692,630.544936 111.137358,630.862286 L112.136751,631.439286 C112.686418,631.756636 113.497228,631.642444 113.937688,631.186508 L115.163577,629.919474 C115.604037,629.463539 116.326309,629.463463 116.766285,629.920026 L117.990055,631.18623 C118.431607,631.642372 119.243112,631.757776 119.792175,631.439163 L120.79213,630.861189 C121.341193,630.542576 121.649306,629.785033 121.474537,629.173774 L120.9894,627.479871 C120.814632,626.868612 121.175257,626.243991 121.79243,626.091292 L123.499962,625.663327 C124.116136,625.510051 124.61913,624.865023 124.620525,624.230215 L124.620088,623.074664 C124.620484,622.439278 124.115788,621.794773 123.500982,621.641025 L121.792532,621.214311 C121.176726,621.059987 120.816078,620.436019 120.9897,619.826024 L121.473885,618.133432 C121.647929,617.525014 121.341418,616.765736 120.791751,616.448386 L119.792358,615.871386 C119.242692,615.554036 118.431882,615.668228 117.991421,616.124164 L116.767686,617.389776 C116.326226,617.845135 115.604954,617.845788 115.163401,617.389646 L113.939632,616.123442 C113.498656,615.666301 112.686574,615.551897 112.138089,615.86951 L111.138133,616.447484 C110.58907,616.766097 110.280957,617.52364 110.456725,618.135477 L110.941018,619.826226 C111.114787,620.436909 110.754162,621.061529 110.138411,621.216382 L108.42888,621.643192 C107.813128,621.798045 107.309134,622.442496 107.308739,623.077882 L107.309176,624.233433 C107.30778,624.868241 107.813476,625.513323 108.429282,625.667648 L110.137732,626.094362 C110.753692,626.246111 111.114762,626.871655 110.940141,627.481072 L110.940141,627.481072 L110.940141,627.481072 Z M117.118555,621.656549 C118.221885,622.293557 118.600926,623.705006 117.963341,624.809336 C117.326333,625.912666 115.913885,626.291131 114.810555,625.654123 C113.707225,625.017115 113.32876,623.604666 113.965768,622.501336 C114.603353,621.397006 116.015224,621.019541 117.118555,621.656549 L117.118555,621.656549 L117.118555,621.656549 Z" id="edit-icon" sketch:type="MSShapeGroup"></path>
        </g>
    </g>
</svg>