<?xml version="1.0" encoding="UTF-8" standalone="no"?>
<svg width="108px" height="75px" viewBox="0 0 108 75" version="1.1" xmlns="http://www.w3.org/2000/svg" xmlns:xlink="http://www.w3.org/1999/xlink" xmlns:sketch="http://www.bohemiancoding.com/sketch/ns">
    <!-- Generator: Sketch 3.4 (15588) - http://www.bohemiancoding.com/sketch -->
    <title>LOGO-small</title>
    <desc>Created with Sketch.</desc>
    <defs></defs>
    <g id="Welcome" stroke="none" stroke-width="1" fill="none" fill-rule="evenodd" sketch:type="MSPage">
        <g id="Desktop-HD-Copy-2" sketch:type="MSArtboardGroup" transform="translate(-181.000000, -13.000000)" fill="#003168">
            <g id="Header" sketch:type="MSLayerGroup" transform="translate(-14.000000, 0.000000)">
                <path d="M202.149165,78.8200805 L202.149165,77.9265245 L203.085824,77.9265245 L202.127614,75.7126941 L198.680378,75.7126941 L197.764276,77.9265245 L198.977788,77.9265245 L198.977788,78.8200805 L195.571997,78.8200805 L195.571997,77.9265245 L196.38001,77.9265245 L200.46749,68.6663673 L201.766213,68.6663673 L205.682607,77.9265245 L206.576495,77.9265245 L206.576495,78.8200805 L202.149165,78.8200805 L202.149165,78.8200805 Z M200.509598,71.7104256 L199.041779,74.8818031 L201.788096,74.8818031 L200.509598,71.7104256 Z M217.41057,78.820412 L210.96039,78.820412 L210.96039,77.9268561 L212.556854,77.9268561 L212.556854,69.8802108 L210.96039,69.8802108 L210.96039,68.9859918 L217.112166,68.9859918 C218.921161,68.9859918 220.071013,69.944202 220.071013,71.4345671 C220.071013,72.7110756 218.942712,73.6265145 217.388356,73.6265145 C219.432427,73.6908373 220.603168,74.6490476 220.603168,76.2441858 C220.603168,77.8837532 219.432427,78.820412 217.41057,78.820412 Z M215.685129,69.944202 L215.132749,69.944202 L215.132749,73.1795708 L215.537253,73.1795708 C216.601562,73.1795708 217.388356,72.5834248 217.388356,71.4985583 C217.388356,70.433254 216.72855,69.944202 215.685129,69.944202 M215.707343,74.2438805 L215.132749,74.2438805 L215.132749,77.8628649 L215.685129,77.8628649 C217.090614,77.8628649 217.921174,77.3512668 217.921174,76.1380864 C217.921174,74.8184751 217.112166,74.2438805 215.707343,74.2438805 Z M235.352311,78.8200805 C234.415984,78.8200805 233.415997,78.7139811 232.862291,77.9265245 L230.478702,74.4998453 L230.179302,74.4998453 L230.179302,77.9265245 L231.776761,77.9265245 L231.776761,78.8200805 L226.008932,78.8200805 L226.008932,77.9265245 L227.603739,77.9265245 L227.603739,69.8802108 L226.008932,69.8802108 L226.008932,68.9859918 L232.202817,68.9859918 C234.26645,68.9859918 235.374194,69.9010992 235.374194,71.6248829 C235.374194,73.0515884 234.501195,74.0950097 233.096041,74.350643 L235.07579,77.2448358 C235.437854,77.7773222 235.842358,78.0326239 236.310522,78.0326239 L236.906005,78.0326239 L236.906005,78.8200805 L235.352311,78.8200805 Z M230.925314,69.8802108 L230.179302,69.8802108 L230.179302,73.541635 L230.946202,73.541635 C231.968403,73.541635 232.73464,72.8599463 232.73464,71.6898688 C232.73464,70.4965821 232.032063,69.8802108 230.925314,69.8802108 Z M247.483452,78.8200805 L247.483452,77.9265245 L248.420774,77.9265245 L247.462895,75.7126941 L244.014333,75.7126941 L243.099226,77.9265245 L244.312738,77.9265245 L244.312738,78.8200805 L240.906615,78.8200805 L240.906615,77.9265245 L241.715623,77.9265245 L245.80244,68.6663673 L247.101163,68.6663673 L251.017226,77.9265245 L251.911776,77.9265245 L251.911776,78.8200805 L247.483452,78.8200805 Z M245.845543,71.7104256 L244.376729,74.8818031 L247.122051,74.8818031 L245.845543,71.7104256 Z M263.382448,78.820412 L263.382448,77.9268561 L264.958356,77.9268561 L264.958356,74.3715313 L260.423933,74.3715313 L260.423933,77.9268561 L262.020729,77.9268561 L262.020729,78.820412 L256.252237,78.820412 L256.252237,77.9268561 L257.849364,77.9268561 L257.849364,69.8805424 L256.252237,69.8805424 L256.252237,68.9859918 L262.020729,68.9859918 L262.020729,69.8805424 L260.423933,69.8805424 L260.423933,73.3088794 L264.958356,73.3088794 L264.958356,69.8805424 L263.382448,69.8805424 L263.382448,68.9859918 L269.151935,68.9859918 L269.151935,69.8805424 L267.555139,69.8805424 L267.555139,77.9268561 L269.151935,77.9268561 L269.151935,78.820412 L263.382448,78.820412 Z M279.759555,78.8200805 L279.759555,77.9265245 L280.695219,77.9265245 L279.738666,75.7126941 L276.289773,75.7126941 L275.374334,77.9265245 L276.587182,77.9265245 L276.587182,78.8200805 L273.182055,78.8200805 L273.182055,77.9265245 L273.990731,77.9265245 L278.077548,68.6663673 L279.376271,68.6663673 L283.29366,77.9265245 L284.186552,77.9265245 L284.186552,78.8200805 L279.759555,78.8200805 Z M278.12065,71.7104256 L276.651837,74.8818031 L279.397159,74.8818031 L278.12065,71.7104256 Z M296.859132,78.820412 L296.859132,77.9268561 L298.24174,77.9268561 L298.24174,71.5615549 L294.603525,78.9689512 L291.048531,71.3496876 L291.048531,77.9268561 L292.643338,77.9268561 L292.643338,78.820412 L288.154007,78.820412 L288.154007,77.9268561 L289.749808,77.9268561 L289.749808,69.8805424 L288.154007,69.8805424 L288.154007,68.9859918 L292.304152,68.9859918 L295.262004,75.201096 L298.347839,68.9859918 L302.095469,68.9859918 L302.095469,69.8805424 L300.49801,69.8805424 L300.49801,77.9268561 L302.095469,77.9268561 L302.095469,78.820412 L296.859132,78.820412 Z M198.681041,87.8710229 L196.248381,87.8710229 L196.248381,87.50498 L197.089218,87.50498 L197.205928,83.6980006 L195.762976,83.6980006 L195.762976,84.2510438 L195.406548,84.2510438 L195.406548,83.1048387 L195.762976,83.1048387 L195.762976,83.3021172 L199.401854,83.3021172 L199.401854,83.1048387 L199.767234,83.1048387 L199.767234,84.2510438 L199.401854,84.2510438 L199.401854,83.6980006 L197.957576,83.6980006 L197.840866,87.50498 L198.681041,87.50498 L198.681041,87.8710229 Z M207.280398,87.8710229 L206.557596,87.8710229 C206.122588,87.8710229 206.043677,87.8315672 205.795669,87.4555774 L204.855032,85.8637548 L204.370953,85.8637548 L204.253581,87.5053115 L204.995282,87.5053115 L204.995282,87.8710229 L202.760232,87.8710229 L202.760232,87.5053115 L203.502596,87.5053115 L203.619305,83.6983322 L202.877604,83.6983322 L202.877604,83.3021172 L205.210796,83.3021172 C206.170333,83.3021172 206.684583,83.7275095 206.684583,84.5288916 C206.684583,85.1913498 206.279085,85.6767546 205.62591,85.7947902 L206.429282,87.1392686 C206.597383,87.3866128 206.785709,87.5053115 207.002882,87.5053115 L207.280398,87.5053115 L207.280398,87.8710229 Z M204.370953,85.4675398 L205.072867,85.4675398 C205.547994,85.4675398 205.854024,85.1014969 205.854024,84.5587321 C205.854024,84.0043627 205.577171,83.6983322 205.062589,83.6983322 L204.370953,83.6983322 L204.370953,85.4675398 Z M214.886399,87.8706913 L213.22528,87.8706913 L213.22528,87.5046484 L213.660619,87.5046484 L213.215002,86.4270763 L211.415622,86.4270763 L210.940496,87.5046484 L211.504812,87.5046484 L211.504812,87.8706913 L210.12121,87.8706913 L210.12121,87.5046484 L210.49521,87.5046484 L212.512093,83.1539096 L212.76839,83.1539096 L214.470622,87.5046484 L214.886399,87.5046484 L214.886399,87.8706913 Z M213.174552,86.0411397 L212.452744,84.3011095 L211.700764,86.0411397 L213.174552,86.0411397 Z M218.001743,87.5053115 L218.742781,87.5053115 L218.860153,83.6681602 L218.118784,83.6681602 L218.118784,83.3021172 L220.462586,83.3021172 C221.807396,83.3021172 222.855791,84.3113878 222.855791,85.5865701 C222.855791,86.8925875 221.709586,87.8713545 220.345214,87.8713545 L218.001743,87.8713545 L218.001743,87.5053115 Z M220.266302,87.4761342 C221.185388,87.4761342 222.005669,86.6651368 222.005669,85.5978431 C222.005669,84.5288916 221.302429,83.6983322 220.392295,83.6983322 L219.612133,83.6983322 L219.495092,87.4761342 L220.266302,87.4761342 Z M228.108374,87.8710229 L225.873656,87.8710229 L225.873656,87.50498 L226.615357,87.50498 L226.731735,83.6980006 L225.990365,83.6980006 L225.990365,83.3021172 L228.225747,83.3021172 L228.225747,83.6980006 L227.483383,83.6980006 L227.366673,87.50498 L228.108374,87.50498 L228.108374,87.8710229 Z M236.06583,87.9496028 L235.769415,87.9496028 L233.019119,84.5879094 L232.901747,87.50498 L233.653726,87.50498 L233.653726,87.8710229 L231.665026,87.8710229 L231.665026,87.50498 L232.407058,87.50498 L232.524431,83.9549601 L232.325826,83.6980006 L231.633859,83.6980006 L231.633859,83.3021172 L232.910367,83.3021172 L235.571141,86.5258814 L235.688514,83.6980006 L234.937529,83.6980006 L234.937529,83.3021172 L236.923909,83.3021172 L236.923909,83.6980006 L236.182871,83.6980006 L236.06583,87.9496028 Z M244.108496,87.6734128 C243.406583,87.9204254 242.991469,88 242.428479,88 C240.935461,88 239.973935,86.991061 239.973935,85.5975116 C239.973935,84.2225296 241.081679,83.1834185 242.525294,83.1834185 C242.911894,83.1834185 243.206652,83.243431 243.771299,83.4314259 L243.771299,83.1635249 L244.137342,83.1635249 L244.137342,84.3408967 L243.771299,84.3408967 L243.771299,83.8853324 C243.326676,83.6592081 243.019983,83.5690236 242.633383,83.5690236 C241.59593,83.5690236 240.824388,84.399583 240.824388,85.5079902 C240.824388,86.7337699 241.538238,87.603785 242.714284,87.603785 C242.912889,87.603785 243.050818,87.5835598 243.368122,87.5053115 L243.368122,86.3587748 L242.616474,86.3587748 L242.733514,85.9927319 L244.977517,85.9927319 L244.861471,86.3587748 L244.108496,86.3587748 L244.108496,87.6734128 Z M254.710148,87.6734128 C254.166057,87.9111417 253.770837,88 253.137224,88 C251.64487,88 250.683676,86.991061 250.683676,85.5975116 C250.683676,84.1727955 251.761911,83.174798 253.304331,83.174798 C253.738012,83.174798 254.01586,83.2530463 254.470761,83.4712132 L254.470761,83.1635249 L254.827189,83.1635249 L254.827189,84.3408967 L254.470761,84.3408967 L254.470761,84.0046942 C254.046364,83.6983322 253.730055,83.5899119 253.283774,83.5899119 C252.276493,83.5899119 251.534129,84.4101929 251.534129,85.5176055 C251.534129,86.6946457 252.228748,87.5835598 253.305326,87.5835598 C253.642854,87.5835598 253.879257,87.5053115 254.344105,87.2576357 L254.35372,86.7536635 L254.710148,86.7536635 L254.710148,87.6734128 Z M257.955464,85.5772864 C257.955464,84.2911626 259.043646,83.1837501 260.308881,83.1837501 C261.554223,83.1837501 262.643068,84.3017726 262.643068,85.5772864 C262.643068,86.8716991 261.437845,88 260.191509,88 C258.926273,88 257.955464,86.8816459 257.955464,85.5772864 Z M258.805917,85.5772864 C258.805917,86.6949773 259.351002,87.5838914 260.183551,87.5838914 C261.021736,87.5838914 261.801899,86.704261 261.801899,85.5869016 C261.801899,84.4798206 261.130488,83.5995271 260.299929,83.5995271 C259.468375,83.5995271 258.805917,84.4798206 258.805917,85.5772864 Z M271.821661,87.8710229 L269.586943,87.8710229 L269.586943,87.50498 L270.327649,87.50498 L270.444027,84.2023044 L268.538548,87.939656 L267.003754,84.399583 L266.886713,87.50498 L267.628082,87.50498 L267.628082,87.8710229 L265.641371,87.8710229 L265.641371,87.50498 L266.38274,87.50498 L266.499781,83.6980006 L265.758412,83.6980006 L265.758412,83.3021172 L267.241483,83.3021172 L268.686755,86.6452432 L270.395287,83.3021172 L271.939034,83.3021172 L271.939034,83.6980006 L271.196669,83.6980006 L271.07996,87.50498 L271.821661,87.50498 L271.821661,87.8710229 Z M277.494332,87.8710229 L275.259945,87.8710229 L275.259945,87.50498 L276.001978,87.50498 L276.118687,83.6980006 L275.376986,83.6980006 L275.376986,83.3021172 L277.770191,83.3021172 C278.650484,83.3021172 279.203196,83.8163678 279.203196,84.6376435 C279.203196,85.4675398 278.530791,86.0709802 277.611705,86.0709802 C277.463497,86.0709802 277.383591,86.0616965 277.196591,86.0315245 L277.196591,85.7152156 C277.286775,85.7248309 277.324573,85.7347777 277.394201,85.7347777 C277.957854,85.7347777 278.372968,85.2901549 278.372968,84.6877092 C278.372968,84.0547599 278.036766,83.6980006 277.44294,83.6980006 L276.870335,83.6980006 L276.753957,87.50498 L277.494332,87.50498 L277.494332,87.8710229 Z M286.162322,87.8706913 L284.501203,87.8706913 L284.501203,87.5046484 L284.936211,87.5046484 L284.491257,86.4270763 L282.691545,86.4270763 L282.217414,87.5046484 L282.780735,87.5046484 L282.780735,87.8706913 L281.397133,87.8706913 L281.397133,87.5046484 L281.772459,87.5046484 L283.787353,83.1539096 L284.045639,83.1539096 L285.74754,87.5046484 L286.162322,87.5046484 L286.162322,87.8706913 Z M284.451138,86.0411397 L283.72933,84.3011095 L282.976688,86.0411397 L284.451138,86.0411397 Z M293.732183,87.9496028 L293.435437,87.9496028 L290.684478,84.5879094 L290.566774,87.50498 L291.318422,87.50498 L291.318422,87.8710229 L289.332042,87.8710229 L289.332042,87.50498 L290.072085,87.50498 L290.189789,83.9549601 L289.991848,83.6980006 L289.300212,83.6980006 L289.300212,83.3021172 L290.576058,83.3021172 L293.236832,86.5258814 L293.353873,83.6980006 L292.601562,83.6980006 L292.601562,83.3021172 L294.591257,83.3021172 L294.591257,83.6980006 L293.849556,83.6980006 L293.732183,87.9496028 Z M300.956227,87.8710229 L298.710566,87.8710229 L298.710566,87.50498 L299.462877,87.50498 L299.578592,85.7649497 L298.166144,83.6980006 L297.65123,83.6980006 L297.65123,83.3021172 L299.440331,83.3021172 L299.440331,83.6980006 L298.995377,83.6980006 L300.143571,85.3687347 L301.181688,83.6980006 L300.637265,83.6980006 L300.637265,83.3021172 L302.100111,83.3021172 L302.100111,83.6980006 L301.625648,83.6980006 L300.321288,85.813026 L300.204579,87.50498 L300.956227,87.50498 L300.956227,87.8710229 Z M271.615431,57.8223449 L271.615099,57.8223449 L248.893911,57.7838839 C248.745372,57.7838839 248.616727,57.6791107 248.585891,57.533224 C248.555719,57.3876689 248.631315,57.240456 248.767255,57.1811066 C248.877002,57.1323672 251.456875,55.9347702 250.720479,52.2537839 C250.483745,51.0701124 248.196308,46.6530615 247.716871,45.734307 L230.597732,45.734307 C230.10669,46.713074 227.69956,51.6775315 228.157114,54.0319436 C228.679985,56.7192426 230.217763,57.1585605 230.284075,57.1761332 C230.436262,57.2159205 230.536393,57.3641281 230.516168,57.5206247 C230.49528,57.6774529 230.362987,57.7951569 230.205164,57.7951569 L219.959277,57.7994672 C219.814385,57.7994672 219.68806,57.699999 219.653247,57.5590858 C219.619096,57.418504 219.685076,57.2719542 219.813722,57.2046474 C219.837926,57.1920481 222.618062,55.5627591 227.561631,44.5473199 L242.482523,13.1796936 C242.534247,13.069947 242.644988,13.0003193 242.766007,13.0003193 L248.339873,13.0003193 C248.459235,13.0003193 248.567987,13.066963 248.621368,13.1740571 L266.120808,48.2157068 C266.153301,48.2757193 269.908888,55.17417 271.847191,57.2948319 C271.931076,57.3873373 271.953291,57.5206247 271.902894,57.6350131 C271.85316,57.7487384 271.740097,57.8223449 271.615431,57.8223449 Z M249.899203,57.155908 L270.936063,57.191385 C268.889671,54.6171482 265.70702,48.771734 265.561796,48.5061539 L248.145579,13.629953 L242.965275,13.629953 L228.13291,44.8115737 C224.48309,52.9437616 221.994065,56.0451799 220.838576,57.1688389 L229.074211,57.1658548 C228.501605,56.6552514 227.849426,55.7457806 227.539085,54.1523001 C226.991015,51.3317137 229.996944,45.5194557 230.125589,45.2734377 C230.179965,45.1693276 230.287059,45.1046733 230.404432,45.1046733 L247.907187,45.1046733 C248.022901,45.1046733 248.130659,45.1686645 248.185366,45.2717799 C248.302407,45.4942571 251.05635,50.7249578 251.337845,52.1304433 C251.880278,54.8419463 250.763582,56.3946448 249.899203,57.155908 M245.414713,32.921809 L255.690241,32.921809 L255.462791,32.4665763 L245.18676,32.4665763 L243.430372,28.9589962 L253.707509,28.9589962 L253.36567,28.2756497 L243.088193,28.2756497 L241.438394,24.9809316 L250.7228,24.9809316 L250.266904,24.0704661 L241.714722,24.0704661 L243.176851,21.0211028 L249.403851,21.0211028 L248.834562,19.882192 L243.722943,19.882192 L244.765526,17.7078173 L248.40917,17.7078173 L247.875357,16.6415183 L243.914202,16.6415183 L243.404925,17.7078173 L243.450225,17.7078173 L240.041242,24.8174722 L250.80138,46.3079069 C250.80138,46.3079069 253.791393,52.095961 253.677668,54.788565 L254.438766,54.788565 L266.894007,54.788565 C266.669209,54.539563 266.397992,54.1662257 266.092956,53.7007145 L254.913702,53.7007145 C254.785231,52.908944 254.519338,52.0000805 254.200407,51.0966372 L264.54921,51.0966373 C264.307171,50.6612981 264.0585,50.2044076 263.804856,49.7302758 L253.680397,49.7302758 C253.20879,48.5673461 252.719408,47.5273077 252.416735,46.907037 L262.330738,46.907037 C262.137438,46.5283947 261.944801,46.1484262 261.753491,45.7684577 L251.847551,45.7684577 L250.312476,42.702848 L260.232622,42.702848 C260.080767,42.3931704 259.931897,42.0881346 259.787999,41.7917194 L249.856237,41.7917194 L248.213245,38.5105952 L258.212755,38.5105952 C258.094056,38.2609301 257.983978,38.0278429 257.889151,37.8272487 L247.871066,37.8272487 L245.414713,32.921809 Z M234.516798,42.5864702 L246.147594,42.5864702 L240.189717,30.7037694 C240.189408,30.7044052 240.189098,30.7050349 240.188787,30.7056577 L234.516798,42.5864702 Z M246.657535,43.2161039 L231.509192,43.2161039 C231.401103,43.2161039 231.300309,43.1600701 231.24328,43.0682278 C231.185257,42.9770487 231.178626,42.8626602 231.225376,42.765513 L238.62581,27.3131292 C238.677533,27.2043773 238.786617,27.1350811 238.906642,27.1340864 C239.022356,27.1320971 239.136745,27.2003986 239.190789,27.3078242 L246.938698,42.7598764 C246.987769,42.8570237 246.982796,42.9734015 246.925767,43.0669016 C246.867744,43.1590754 246.766287,43.2161039 246.657535,43.2161039 Z M268.287556,48.0409744 C266.810454,45.1457868 251.400178,14.5357766 251.245671,14.2267621 C251.210525,14.1584606 251.152502,14.1047478 251.080885,14.0765652 L248.456914,13.0225339 C248.399554,12.9993246 248.335563,12.9936881 248.274556,13.0072821 L246.823647,13.3143072 L248.339542,13.3143072 L265.838649,48.3566201 C265.838649,48.3566201 269.627061,55.3329876 271.615431,57.5073623 L248.894243,57.4692328 C248.894243,57.4692328 249.104121,57.3750696 249.393573,57.1658548 L248.815994,57.1658548 C248.691659,57.1658548 248.579592,57.2381351 248.528863,57.3518604 C248.478134,57.4649225 248.498691,57.5975468 248.58125,57.6903838 L250.796738,60.1721152 C250.857082,60.2387589 250.941961,60.3637572 251.032146,60.3637572 L273.673096,60.3637572 C273.793784,60.3637572 273.903531,60.2079237 273.955586,60.099835 L274.833227,58.2964766 C274.886608,58.1877247 274.871688,58.0580845 274.796755,57.9635897 C272.831595,55.4858371 269.882363,51.166265 268.287556,48.0409744 Z M232.894784,57.7464175 C232.872238,57.7351445 230.697532,56.5823081 230.246941,54.1552842 C230.215442,52.5581566 230.497932,51.0949794 231.043681,50.0323276 L231.987966,48.2090756 L249.325272,48.2090756 C248.593849,46.721363 247.906855,45.4186612 247.906855,45.4186612 L230.404763,45.4186612 C230.404763,45.4186612 227.31495,51.3479602 227.848431,54.0919561 C228.420041,57.0368777 230.204832,57.4805059 230.204832,57.4805059 L219.959609,57.4838215 C219.959609,57.4838215 220.133015,57.393637 220.472201,57.0826331 L219.959609,57.0826331 C219.801123,57.0829647 219.65822,57.1754701 219.592902,57.3193674 C219.527917,57.4629332 219.55411,57.6316975 219.65822,57.7503962 L221.848178,60.2288121 C221.924768,60.3143547 222.033852,60.3637572 222.149235,60.3637572 L231.840753,60.3637572 C231.997249,60.3637572 232.139157,60.2732412 232.204806,60.1323279 L233.073827,58.2722727 C233.164343,58.0776466 233.085431,57.8452226 232.894784,57.7464175 Z" id="LOGO-small" sketch:type="MSShapeGroup"></path>
            </g>
        </g>
    </g>
</svg>