<?xml version="1.0" encoding="UTF-8" standalone="no"?>
<svg width="33px" height="33px" viewBox="0 0 33 33" version="1.1" xmlns="http://www.w3.org/2000/svg" xmlns:xlink="http://www.w3.org/1999/xlink">
    <!-- Generator: sketchtool 3.6.1 (26313) - http://www.bohemiancoding.com/sketch -->
    <title>selected copy</title>
    <desc>Created with sketchtool.</desc>
    <defs></defs>
    <g id="Page-1" stroke="none" stroke-width="1" fill="none" fill-rule="evenodd">
        <g id="performance---with-overlay" transform="translate(-466.000000, -453.000000)" fill="#36DE03">
            <path d="M482.5,486 C491.612698,486 499,478.612698 499,469.5 C499,460.387302 491.612698,453 482.5,453 C473.387302,453 466,460.387302 466,469.5 C466,478.612698 473.387302,486 482.5,486 Z M482.5,483 C475.044156,483 469,476.955844 469,469.5 C469,462.044156 475.044156,456 482.5,456 C489.955844,456 496,462.044156 496,469.5 C496,476.955844 489.955844,483 482.5,483 Z M473.539723,472.652332 L479.539723,477.652332 L480.692055,478.612609 L481.652332,477.460277 L491.652332,465.460277 L489.347668,463.539723 L479.347668,475.539723 L481.460277,475.347668 L475.460277,470.347668 L473.539723,472.652332 Z" id="selected-copy"></path>
        </g>
    </g>
</svg>