<?xml version="1.0" encoding="UTF-8" standalone="no"?>
<svg width="15px" height="15px" viewBox="0 0 15 15" version="1.1" xmlns="http://www.w3.org/2000/svg" xmlns:xlink="http://www.w3.org/1999/xlink" xmlns:sketch="http://www.bohemiancoding.com/sketch/ns">
    <!-- Generator: sketchtool 3.5.1 (25234) - http://www.bohemiancoding.com/sketch -->
    <title>tooltip icon</title>
    <desc>Created with sketchtool.</desc>
    <defs></defs>
    <g id="Page-1" stroke="none" stroke-width="1" fill="none" fill-rule="evenodd" sketch:type="MSPage">
        <g id="performance" sketch:type="MSArtboardGroup" transform="translate(-166.000000, -542.000000)" fill="#315AAF">
            <path d="M173.5,542 C169.357794,542 166,545.357794 166,549.5 C166,553.642206 169.357794,557 173.5,557 C177.642206,557 181,553.642206 181,549.5 C181,545.357794 177.642206,542 173.5,542 Z M173.5,555.676471 C170.088824,555.676471 167.323529,552.911176 167.323529,549.5 C167.323529,546.088824 170.088824,543.323529 173.5,543.323529 C176.911176,543.323529 179.676471,546.088824 179.676471,549.5 C179.676471,552.911176 176.911176,555.676471 173.5,555.676471 Z M173.554265,546.058824 C172.918971,546.058824 172.388676,546.280735 171.964265,546.641176 C171.539853,547.001618 171.291471,547.294118 171.22,548.176471 L172.515735,548.176471 C172.543971,547.735294 172.649412,547.633382 172.831618,547.465735 C173.013824,547.298088 173.240147,547.193088 173.511471,547.193088 C173.782794,547.193088 174.003824,547.269853 174.175,547.445 C174.346618,547.619706 174.432206,547.834118 174.432206,548.097941 C174.432206,548.361765 174.349706,548.580588 174.186029,548.759265 L173.404265,549.539706 C173.175735,549.768235 173.128088,549.951765 173.060147,550.090735 C172.992206,550.229706 173.058824,550.441029 173.058824,550.726471 L173.058824,551.264706 L173.941176,551.264706 L173.941176,550.897647 C173.941176,550.612647 174.068676,550.391176 174.1975,550.234118 C174.246912,550.177206 174.344412,550.1075 174.427353,550.025441 C174.509412,549.942941 174.625,549.846765 174.742794,549.736029 C174.860588,549.625735 174.963382,549.534412 175.034853,549.462941 C175.105882,549.391912 175.213088,549.270147 175.348971,549.098971 C175.584118,548.813529 175.704118,548.456618 175.704118,548.028235 C175.704118,547.407059 175.505588,546.923971 175.105882,546.577206 C174.705294,546.231765 174.189559,546.058824 173.554265,546.058824 Z M173.473529,551.769853 C173.248529,551.769853 173.056176,551.848824 172.895147,552.005441 C172.734559,552.1625 172.654265,552.349559 172.654265,552.5675 C172.654265,552.785 172.736324,552.970735 172.900441,553.124265 C173.064559,553.277794 173.259118,553.354118 173.483676,553.354118 C173.708676,553.354118 173.901471,553.275588 174.062059,553.118971 C174.222206,552.961912 174.302941,552.774412 174.302941,552.556912 C174.302941,552.339412 174.220441,552.153676 174.056324,551.999706 C173.893088,551.846176 173.698529,551.769853 173.473529,551.769853 Z" id="tooltip-icon" sketch:type="MSShapeGroup"></path>
        </g>
    </g>
</svg>